<?xml version="1.0" standalone="no"?>
<!DOCTYPE svg PUBLIC "-//W3C//DTD SVG 20010904//EN"
 "http://www.w3.org/TR/2001/REC-SVG-20010904/DTD/svg10.dtd">
<svg version="1.0" xmlns="http://www.w3.org/2000/svg"
 width="512.000000pt" height="512.000000pt" viewBox="0 0 512.000000 512.000000"
 preserveAspectRatio="xMidYMid meet">
<metadata>
Created by potrace 1.14, written by Peter Selinger 2001-2017
</metadata>
<g transform="translate(0.000000,512.000000) scale(0.100000,-0.100000)"
fill="#000000" stroke="none">
<path d="M3410 5107 c-19 -7 -73 -41 -120 -74 l-85 -61 -115 28 c-213 51 -333
65 -590 65 -175 0 -264 -5 -350 -18 -537 -83 -995 -307 -1364 -666 -148 -145
-225 -237 -332 -397 -91 -137 -211 -369 -221 -428 -10 -62 51 -106 106 -76 10
5 33 43 51 85 l33 75 271 0 c263 0 273 -1 321 -24 61 -28 116 -87 140 -149 21
-56 17 -155 -9 -209 -25 -52 -82 -107 -135 -132 -44 -20 -64 -21 -405 -24
l-359 -3 7 33 c20 99 19 106 -7 132 -40 40 -98 30 -117 -20 -19 -50 -49 -246
-61 -395 -26 -342 35 -712 171 -1042 70 -169 99 -219 133 -231 36 -13 78 8 91
47 8 23 4 39 -22 92 l-32 65 1184 0 c719 0 1233 4 1309 10 263 22 449 104 653
291 141 128 262 197 422 241 70 19 109 22 430 26 l353 4 -7 -39 c-27 -155
-108 -411 -166 -525 l-18 -38 -248 0 c-202 0 -263 -4 -337 -19 -195 -40 -340
-118 -523 -279 -63 -54 -141 -116 -175 -136 -129 -76 -309 -126 -451 -126
l-61 1 -26 43 c-32 53 -111 96 -176 96 -77 0 -155 -46 -189 -113 l-15 -27
-777 0 -778 0 -40 43 c-22 23 -60 66 -83 95 -46 56 -78 71 -117 53 -28 -12
-47 -55 -38 -83 10 -33 147 -189 263 -301 101 -96 237 -206 332 -267 l36 -24
41 -193 c44 -210 58 -240 120 -272 21 -10 212 -69 427 -130 415 -120 424 -121
491 -80 17 10 87 79 157 152 l126 134 148 11 c311 24 580 93 858 218 143 65
199 101 203 133 6 41 -7 68 -38 81 -29 12 -39 9 -158 -48 -310 -149 -594 -223
-929 -240 l-145 -8 -150 -157 c-82 -86 -154 -157 -160 -157 -25 0 -754 214
-764 224 -6 6 -28 94 -49 196 -21 102 -42 195 -46 207 -5 12 -43 45 -86 74
-75 50 -243 179 -243 186 0 1 314 3 698 3 l698 0 32 -45 c51 -72 141 -107 223
-85 53 14 105 52 130 95 19 32 20 32 121 39 278 19 477 105 681 293 147 135
290 213 457 249 59 13 466 21 477 10 6 -6 -61 -108 -140 -216 -83 -111 -249
-285 -362 -378 -99 -81 -105 -88 -105 -127 0 -40 27 -65 70 -65 25 0 49 13
104 57 546 441 875 1115 877 1798 l0 151 55 52 c59 56 84 102 84 154 0 18 -28
128 -62 243 -55 189 -65 214 -98 247 -22 23 -52 40 -80 48 -68 17 -70 18 -80
46 -21 54 -122 248 -171 326 -121 195 -324 427 -502 573 l-85 69 -7 120 c-8
130 -15 158 -48 195 -30 31 -406 219 -454 226 -21 3 -54 -1 -73 -8z m233 -218
c89 -45 170 -89 180 -97 14 -13 17 -33 17 -139 0 -68 4 -132 10 -142 5 -10 42
-44 82 -76 109 -88 223 -192 263 -241 l36 -43 -34 -90 c-99 -263 -309 -463
-577 -549 -119 -38 -172 -42 -621 -42 -300 0 -446 -4 -462 -11 -55 -25 -55
-103 -1 -128 40 -18 842 -15 967 4 366 55 685 305 820 644 l18 44 55 -79 c76
-109 155 -249 209 -374 25 -58 52 -110 60 -116 9 -6 42 -17 74 -23 33 -6 64
-17 69 -24 13 -15 112 -354 112 -381 0 -12 -30 -51 -70 -92 l-70 -72 -368 -5
c-332 -4 -375 -6 -449 -25 -199 -51 -344 -132 -511 -284 -103 -93 -190 -150
-296 -192 -158 -63 -71 -60 -1550 -63 -742 -2 -1353 0 -1358 5 -26 26 -48 468
-30 607 l7 50 395 5 395 5 58 27 c112 53 209 171 236 289 35 151 -23 316 -146
415 -98 80 -134 88 -411 92 -133 2 -242 7 -242 11 0 15 127 199 190 276 34 41
97 113 141 159 l79 83 112 7 c565 35 1296 258 1685 515 50 34 102 61 115 61
34 0 171 -27 276 -55 52 -14 103 -25 114 -25 11 0 68 34 126 75 59 41 113 75
120 75 7 0 86 -37 175 -81z m-1083 31 c0 -16 -290 -153 -443 -210 -188 -69
-418 -134 -622 -175 -177 -36 -337 -59 -355 -53 -17 5 163 121 292 186 212
109 423 180 654 221 185 33 474 52 474 31z m2229 -2277 c0 -38 -3 -86 -7 -108
l-7 -40 -385 -6 c-437 -6 -457 -9 -639 -95 -112 -53 -186 -104 -308 -216 -146
-133 -281 -201 -469 -233 -77 -13 -253 -15 -1359 -13 l-1270 3 -32 95 c-17 52
-32 101 -32 108 -1 9 270 12 1323 12 1434 0 1402 -1 1565 55 143 48 261 122
399 249 140 129 276 201 442 236 72 16 137 19 433 19 l347 1 -1 -67z m-2166
-1494 c17 -24 18 -30 6 -55 -31 -63 -119 -50 -119 18 0 68 72 91 113 37z"/>
<path d="M3330 4800 c-24 -24 -26 -67 -5 -97 20 -29 136 -104 204 -132 30 -13
85 -25 126 -28 66 -5 74 -4 93 18 12 12 22 34 22 48 -1 45 -24 62 -99 77 -88
16 -141 39 -211 93 -61 46 -99 52 -130 21z"/>
<path d="M2660 4600 c-45 -45 -11 -120 53 -120 42 0 70 29 70 70 0 63 -78 95
-123 50z"/>
<path d="M2535 4445 c-14 -13 -25 -36 -25 -50 0 -31 41 -75 70 -75 56 0 90 52
69 103 -21 50 -76 61 -114 22z"/>
<path d="M1523 4110 c-100 -50 -153 -129 -160 -240 -9 -119 55 -228 166 -282
65 -32 178 -31 241 1 170 87 220 293 107 442 -51 66 -123 102 -217 107 -69 3
-80 1 -137 -28z m217 -155 c17 -16 36 -46 42 -67 23 -76 -29 -159 -107 -174
-49 -9 -80 1 -122 39 -65 60 -55 171 20 218 48 30 127 22 167 -16z"/>
<path d="M3520 4124 c-45 -19 -77 -50 -100 -94 -55 -107 -26 -208 81 -288 27
-20 106 -30 152 -20 129 28 203 175 148 293 -48 104 -177 154 -281 109z m134
-153 c25 -27 17 -70 -17 -95 -26 -19 -30 -19 -55 -5 -62 34 -47 119 22 119 20
0 40 -8 50 -19z"/>
<path d="M1945 3392 c-152 -52 -249 -161 -281 -313 -40 -187 50 -371 222 -456
253 -125 548 27 596 306 35 203 -93 407 -291 465 -71 21 -183 20 -246 -2z
m258 -165 c82 -48 137 -141 137 -232 0 -91 -55 -184 -137 -232 -63 -36 -171
-44 -234 -16 -107 48 -163 133 -163 248 0 113 55 198 159 247 60 28 176 21
238 -15z"/>
<path d="M4630 3370 c-25 -25 -27 -96 -5 -188 29 -122 88 -202 148 -202 26 0
41 7 56 26 28 36 26 53 -10 102 -37 51 -59 118 -59 182 0 63 -28 100 -76 100
-21 0 -42 -8 -54 -20z"/>
<path d="M2763 3190 c-47 -19 -56 -78 -18 -115 24 -25 26 -25 215 -25 189 0
191 0 215 25 14 13 25 36 25 50 0 14 -11 37 -25 50 -24 25 -26 25 -207 24
-101 0 -193 -4 -205 -9z"/>
<path d="M2730 2943 c-54 -69 48 -154 108 -90 45 48 14 117 -52 117 -26 0 -40
-7 -56 -27z"/>
<path d="M2181 884 c-12 -15 -21 -34 -21 -44 0 -10 9 -29 21 -44 41 -52 129
-22 129 44 0 66 -88 96 -129 44z"/>
<path d="M1458 553 c-10 -11 -18 -34 -18 -51 0 -54 23 -66 156 -85 144 -20
298 -64 413 -118 46 -21 97 -39 112 -39 51 0 83 53 63 105 -7 18 -111 72 -211
111 -122 46 -293 85 -398 91 -91 5 -102 4 -117 -14z"/>
</g>
</svg>
